<?xml version="1.0" encoding="utf-8"?>
<!-- Generator: Adobe Illustrator 24.1.0, SVG Export Plug-In . SVG Version: 6.00 Build 0)  -->
<svg version="1.1" id="Layer_2" xmlns="http://www.w3.org/2000/svg" xmlns:xlink="http://www.w3.org/1999/xlink" x="0px" y="0px"
	 viewBox="0 0 16 16" style="enable-background:new 0 0 16 16;" xml:space="preserve">
<style type="text/css">
	.st0{fill:none;stroke:#FC807F;stroke-width:1.25;stroke-miterlimit:10;}
	.st1{fill:none;}
	.st2{fill:none;stroke:#FC807F;stroke-width:1.25;stroke-linecap:round;stroke-miterlimit:10;}
</style>
<circle class="st0" cx="8" cy="8" r="7"/>
<g>
	<path class="st1" d="M9.9,4.7"/>
</g>
<g>
	<path class="st1" d="M8,12.7"/>
</g>
<g>
	<path class="st1" d="M8.2,5.6"/>
</g>
<path class="st2" d="M11.7,13.9c-2.2,1.4-4.1,0.8-6.4-2.3C3.6,9.2,3,6.1,5.5,4.4c2-1.4,4.8-0.9,6.2,1c1.1,1.6,0.7,3.7-0.9,4.8
	c-1.3,0.9-3.1,0.6-4-0.7c-0.7-1-0.5-2.4,0.5-3.1C8.3,6,9.4,6.1,10,6.9c0.5,0.6,0.3,1.5-0.4,2"/>
</svg>
