<?xml version="1.0" encoding="utf-8"?>
<!-- Generator: Adobe Illustrator 24.1.0, SVG Export Plug-In . SVG Version: 6.00 Build 0)  -->
<svg version="1.1" id="Layer_2_1_" xmlns="http://www.w3.org/2000/svg" xmlns:xlink="http://www.w3.org/1999/xlink" x="0px" y="0px"
	 viewBox="0 0 16 16" style="enable-background:new 0 0 16 16;" xml:space="preserve">
<style type="text/css">
	.st0{fill:none;stroke:#FC807F;stroke-width:1.25;stroke-linecap:round;stroke-miterlimit:10;}
</style>
<path class="st0" d="M13.5,1.3c0,2.1,1.4,2.4,0,6.4c-1.8,5.1,0,4.8,0,7.2"/>
<path class="st0" d="M9.9,1.3c0,2.1,1.4,2.4,0,6.4c-1.8,5.1,0,4.8,0,7.2"/>
<path class="st0" d="M6.2,1.3c0,2.1,1.4,2.4,0,6.4c-1.8,5.1,0,4.8,0,7.2"/>
<path class="st0" d="M2.7,1.6c0,2.1,1.4,2.4,0,6.4c-1.8,5.1,0,4.8,0,7.2"/>
<path class="st0" d="M14.8,13.3c-2.1,0-2.4,1.4-6.4,0c-5.1-1.8-4.8,0-7.2,0"/>
<path class="st0" d="M14.6,10.1c-2.1,0-2.4,1.4-6.4,0c-5.1-1.8-4.8,0-7.2,0"/>
<path class="st0" d="M14.8,6.6c-2.1,0-2.4,1.4-6.4,0c-5.1-1.8-4.8,0-7.2,0"/>
<path class="st0" d="M14.9,3.3c-2.1,0-2.4,1.4-6.4,0c-5.1-1.8-4.8,0-7.2,0"/>
</svg>
