<?xml version="1.0" encoding="UTF-8" standalone="no"?>
<!-- Created with Inkscape (http://www.inkscape.org/) -->

<!--(C) Claudio Z. 2024 (www.cloudofoz.com -->

<svg
   version="1.1"
   id="svg1"
   width="21.333332"
   height="21.333332"
   viewBox="0 0 21.333332 21.333332"
   sodipodi:docname="dm_icon_drag_deformer.svg"
   inkscape:version="1.3.1 (9b9bdc1480, 2023-11-25, custom)"
   xmlns:inkscape="http://www.inkscape.org/namespaces/inkscape"
   xmlns:sodipodi="http://sodipodi.sourceforge.net/DTD/sodipodi-0.dtd"
   xmlns="http://www.w3.org/2000/svg"
   xmlns:svg="http://www.w3.org/2000/svg">
  <defs
     id="defs1">
    <clipPath
       clipPathUnits="userSpaceOnUse"
       id="clipPath2">
      <path
         d="M 0,16 H 16 V 0 H 0 Z"
         transform="translate(-15.0127,-7.9999999)"
         id="path2" />
    </clipPath>
    <clipPath
       clipPathUnits="userSpaceOnUse"
       id="clipPath4">
      <path
         d="M 0,16 H 16 V 0 H 0 Z"
         transform="translate(-8.0000005,-8.3999)"
         id="path4" />
    </clipPath>
    <clipPath
       clipPathUnits="userSpaceOnUse"
       id="clipPath6">
      <path
         d="M 0,16 H 16 V 0 H 0 Z"
         transform="translate(-5.7222001,-11.7187)"
         id="path6" />
    </clipPath>
    <clipPath
       clipPathUnits="userSpaceOnUse"
       id="clipPath8">
      <path
         d="M 0,16 H 16 V 0 H 0 Z"
         transform="translate(-8.6211002,-7.9999999)"
         id="path8" />
    </clipPath>
    <clipPath
       clipPathUnits="userSpaceOnUse"
       id="clipPath10">
      <path
         d="M 0,16 H 16 V 0 H 0 Z"
         transform="translate(-11.793,-10.2778)"
         id="path10" />
    </clipPath>
    <clipPath
       clipPathUnits="userSpaceOnUse"
       id="clipPath12">
      <path
         d="M 0,16 H 16 V 0 H 0 Z"
         transform="translate(-8.0000005,-7.5996004)"
         id="path12" />
    </clipPath>
    <clipPath
       clipPathUnits="userSpaceOnUse"
       id="clipPath14">
      <path
         d="M 0,16 H 16 V 0 H 0 Z"
         transform="translate(-10.277301,-4.2811999)"
         id="path14" />
    </clipPath>
    <clipPath
       clipPathUnits="userSpaceOnUse"
       id="clipPath16">
      <path
         d="M 0,16 H 16 V 0 H 0 Z"
         transform="translate(-7.3789002,-7.9999999)"
         id="path16" />
    </clipPath>
    <clipPath
       clipPathUnits="userSpaceOnUse"
       id="clipPath18">
      <path
         d="M 0,16 H 16 V 0 H 0 Z"
         transform="translate(-4.2070001,-5.7217001)"
         id="path18" />
    </clipPath>
  </defs>
  <sodipodi:namedview
     id="namedview1"
     pagecolor="#505050"
     bordercolor="#eeeeee"
     borderopacity="1"
     inkscape:showpageshadow="0"
     inkscape:pageopacity="0"
     inkscape:pagecheckerboard="0"
     inkscape:deskcolor="#505050"
     inkscape:zoom="10.089845"
     inkscape:cx="-20.961671"
     inkscape:cy="21.407664"
     inkscape:window-width="1854"
     inkscape:window-height="1011"
     inkscape:window-x="0"
     inkscape:window-y="0"
     inkscape:window-maximized="1"
     inkscape:current-layer="layer2">
    <inkscape:page
       x="0"
       y="0"
       inkscape:label="1"
       id="page1"
       width="21.333332"
       height="21.333332"
       margin="0.48319468 0.48320001 0.48320001 0.48319468"
       bleed="0" />
  </sodipodi:namedview>
  <g
     inkscape:groupmode="layer"
     id="layer2"
     inkscape:label="Layer 1">
    <path
       d="m 17.802367,12.879938 c 0,2.721969 -2.206812,4.92878 -4.928779,4.92878 -2.72197,0 -4.9280781,-2.206811 -4.9280781,-4.92878 0,-2.721968 2.2061081,-4.9287798 4.9280781,-4.9287798 2.721967,0 4.928779,2.2068118 4.928779,4.9287798 z"
       style="display:inline;fill:#fc807f;stroke:none;stroke-width:0;stroke-linecap:butt;stroke-linejoin:round;stroke-miterlimit:10;stroke-dasharray:0, 0;stroke-dashoffset:0;stroke-opacity:1;paint-order:normal;fill-opacity:1"
       id="path20" />
    <path
       d="m 9.3043998,7.8446258 c 0,0.839062 -0.680262,1.519323 -1.519323,1.519323 -0.839062,0 -1.519107,-0.680261 -1.519107,-1.519323 0,-0.839062 0.680045,-1.519323 1.519107,-1.519323 0.839061,0 1.519323,0.680261 1.519323,1.519323 z"
       style="display:inline;fill:#fc807f;fill-opacity:1;stroke:none;stroke-width:0;stroke-linecap:butt;stroke-linejoin:round;stroke-miterlimit:10;stroke-dasharray:none;stroke-dashoffset:0;stroke-opacity:1;paint-order:normal"
       id="path20-5" />
    <path
       d="m 20.153541,12.847077 c 0,4.03529 -3.271575,7.306864 -7.306864,7.306864 -4.0352896,0 -7.3058224,-3.271574 -7.3058224,-7.306864 0,-6.1306916 -5.67404277,-10.2864818 -4.3519984,-11.6087867 1.3220444,-1.32230482 5.5271292,4.3019227 11.6578208,4.3019227 4.035289,0 7.306864,3.2715747 7.306864,7.306864 z"
       style="fill:none;stroke:#fc807f;stroke-width:2;stroke-linecap:butt;stroke-linejoin:miter;stroke-miterlimit:10;stroke-dasharray:none;stroke-opacity:1"
       id="path1-8"
       inkscape:label="path1-8"
       sodipodi:nodetypes="ssssss" />
    <path
       d="m 20.016933,10.666667 c 0,5.164 -4.186667,9.350666 -9.350666,9.350666 -5.1640003,0 -9.3493335,-4.186666 -9.3493335,-9.350666 0,-5.1639999 4.1853332,-9.3506664 9.3493335,-9.3506664 5.163999,0 9.350666,4.1866665 9.350666,9.3506664 z"
       style="display:none;fill:none;stroke:#fc807f;stroke-width:1.25;stroke-linecap:butt;stroke-linejoin:miter;stroke-miterlimit:10;stroke-dasharray:none;stroke-opacity:1"
       id="path19" />
  </g>
</svg>
